<svg xmlns="http://www.w3.org/2000/svg" xmlns:xlink="http://www.w3.org/1999/xlink" width="1024" zoomAndPan="magnify" viewBox="0 0 768 767.999994" height="1024" preserveAspectRatio="xMidYMid meet" version="1.0"><defs><g/><clipPath id="bbc6ab772e"><rect x="0" width="739" y="0" height="171"/></clipPath></defs><rect x="-76.8" width="921.6" fill="#ffffff" y="-76.799999" height="921.599993" fill-opacity="1"/><rect x="-76.8" width="921.6" fill="#f4c300" y="-76.799999" height="921.599993" fill-opacity="1"/><g transform="matrix(1, 0, 0, 1, 29, 322)"><g clip-path="url(#bbc6ab772e)"><g fill="#ffffff" fill-opacity="1"><g transform="translate(4.728545, 124.184192)"><g><path d="M -3.421875 -118.09375 L 39.1875 -119.8125 L 52.71875 -26.703125 L 61.28125 -117.75 L 103.203125 -119.8125 L 73.765625 0 L 32.34375 0 Z M -3.421875 -118.09375 "/></g></g></g><g fill="#ffffff" fill-opacity="1"><g transform="translate(104.505463, 124.184192)"><g><path d="M 3.421875 0 L 3.421875 -118.09375 L 83.1875 -119.8125 L 83.1875 -86.265625 L 34.40625 -84.546875 L 34.40625 -69.828125 L 73.078125 -73.25 L 73.078125 -41.59375 L 34.234375 -39.875 L 34.234375 -24.984375 L 83.1875 -28.40625 L 83.1875 0 Z M 3.421875 0 "/></g></g></g><g fill="#ffffff" fill-opacity="1"><g transform="translate(191.104325, 124.184192)"><g><path d="M 3.421875 -1.03125 L 3.421875 -118.09375 L 38.859375 -119.8125 L 38.859375 -70.34375 L 57 -72.0625 L 57 -118.09375 L 92.25 -119.8125 L 92.25 -1.03125 L 57 -1.03125 L 57 -40.21875 L 38.859375 -38.515625 L 38.859375 -1.03125 Z M 3.421875 -1.03125 "/></g></g></g><g fill="#ffffff" fill-opacity="1"><g transform="translate(286.773805, 124.184192)"><g><path d="M 39.875 -119.8125 L 35.421875 0 L 3.9375 0 L 3.421875 -118.09375 Z M 39.875 -119.8125 "/></g></g></g><g fill="#ffffff" fill-opacity="1"><g transform="translate(330.073236, 124.184192)"><g><path d="M 49.46875 -11.8125 C 51.976562 -11.8125 54.144531 -11.984375 55.96875 -12.328125 C 57.675781 -12.671875 59.101562 -13.695312 60.25 -15.40625 C 61.382812 -17 62.179688 -19.453125 62.640625 -22.765625 C 62.984375 -26.078125 62.984375 -30.640625 62.640625 -36.453125 L 47.40625 -36.453125 C 43.757812 -36.453125 40.566406 -36.507812 37.828125 -36.625 C 35.085938 -36.625 32.578125 -36.796875 30.296875 -37.140625 C 27.898438 -37.367188 25.734375 -37.769531 23.796875 -38.34375 C 21.734375 -38.800781 19.5625 -39.484375 17.28125 -40.390625 C 11.695312 -42.441406 7.765625 -45.921875 5.484375 -50.828125 C 3.078125 -55.734375 1.875 -62.753906 1.875 -71.890625 C 1.875 -74.054688 1.820312 -76.738281 1.71875 -79.9375 C 1.601562 -83.125 1.828125 -86.488281 2.390625 -90.03125 C 2.847656 -93.5625 3.820312 -97.15625 5.3125 -100.8125 C 6.789062 -104.34375 9.128906 -107.648438 12.328125 -110.734375 C 15.972656 -114.273438 20.765625 -117.1875 26.703125 -119.46875 C 32.628906 -121.632812 40.726562 -122.71875 51 -122.71875 C 56.476562 -122.71875 61.328125 -122.203125 65.546875 -121.171875 C 69.660156 -120.035156 73.3125 -118.554688 76.5 -116.734375 C 79.695312 -114.785156 82.4375 -112.613281 84.71875 -110.21875 C 86.882812 -107.707031 88.710938 -105.03125 90.203125 -102.1875 C 92.597656 -97.613281 94.191406 -92.875 94.984375 -87.96875 C 95.671875 -83.0625 96.015625 -78.554688 96.015625 -74.453125 C 95.898438 -69.660156 95.445312 -64.984375 94.65625 -60.421875 L 60.9375 -60.421875 L 60.9375 -75.484375 C 60.9375 -80.046875 60.421875 -83.582031 59.390625 -86.09375 C 58.242188 -88.601562 55.675781 -89.859375 51.6875 -89.859375 C 50.769531 -89.859375 49.800781 -89.800781 48.78125 -89.6875 C 47.75 -89.457031 46.609375 -89.226562 45.359375 -89 C 42.503906 -88.3125 40.503906 -87.113281 39.359375 -85.40625 C 38.109375 -83.695312 37.367188 -81.644531 37.140625 -79.25 C 36.796875 -76.851562 36.738281 -74.285156 36.96875 -71.546875 C 37.195312 -68.691406 37.3125 -65.953125 37.3125 -63.328125 C 37.3125 -59.898438 38.28125 -57.273438 40.21875 -55.453125 C 42.039062 -53.515625 44.609375 -52.546875 47.921875 -52.546875 C 50.546875 -52.546875 53.054688 -52.601562 55.453125 -52.71875 C 57.734375 -52.71875 60.015625 -52.71875 62.296875 -52.71875 C 67.429688 -52.71875 72.109375 -52.488281 76.328125 -52.03125 C 80.554688 -51.457031 84.210938 -50.316406 87.296875 -48.609375 C 90.367188 -46.785156 92.765625 -44.101562 94.484375 -40.5625 C 96.078125 -37.03125 96.875 -32.179688 96.875 -26.015625 C 96.875 -21.222656 96.019531 -17.171875 94.3125 -13.859375 C 92.476562 -10.554688 90.140625 -7.816406 87.296875 -5.640625 C 84.328125 -3.359375 81.015625 -1.59375 77.359375 -0.34375 C 73.710938 0.914062 70.0625 1.828125 66.40625 2.390625 C 62.644531 2.960938 59.050781 3.304688 55.625 3.421875 C 52.082031 3.648438 49.113281 3.765625 46.71875 3.765625 C 40.90625 3.765625 35.882812 3.25 31.65625 2.21875 C 27.320312 1.195312 23.613281 -0.113281 20.53125 -1.71875 C 17.457031 -3.3125 14.953125 -5.191406 13.015625 -7.359375 C 10.953125 -9.410156 9.351562 -11.519531 8.21875 -13.6875 C 5.363281 -18.820312 4.109375 -24.644531 4.453125 -31.15625 L 39.1875 -28.40625 C 39.1875 -25.78125 39.300781 -23.441406 39.53125 -21.390625 C 39.644531 -19.335938 40.046875 -17.628906 40.734375 -16.265625 C 41.421875 -14.773438 42.445312 -13.691406 43.8125 -13.015625 C 45.070312 -12.210938 46.84375 -11.8125 49.125 -11.8125 Z M 49.46875 -11.8125 "/></g></g></g><g fill="#ffffff" fill-opacity="1"><g transform="translate(428.652172, 124.184192)"><g><path d="M 1.71875 0 L 29.09375 -118.09375 L 76.671875 -119.8125 L 104.0625 0 L 68.96875 0 L 64.875 -22.765625 L 40.90625 -22.765625 L 36.796875 0 Z M 62.46875 -39.703125 L 57.171875 -73.421875 L 48.609375 -73.421875 L 43.296875 -39.703125 Z M 62.46875 -39.703125 "/></g></g></g><g fill="#ffffff" fill-opacity="1"><g transform="translate(534.419127, 124.184192)"><g><path d="M 3.421875 -118.09375 L 83.1875 -119.8125 L 83.1875 -85.578125 L 34.40625 -83.859375 L 34.40625 -66.40625 L 73.078125 -69.828125 L 73.078125 -38.171875 L 36.109375 -36.453125 L 36.109375 0 L 3.421875 0 Z M 3.421875 -118.09375 "/></g></g></g><g fill="#ffffff" fill-opacity="1"><g transform="translate(621.017989, 124.184192)"><g><path d="M 3.421875 0 L 3.421875 -118.09375 L 83.1875 -119.8125 L 83.1875 -86.265625 L 34.40625 -84.546875 L 34.40625 -69.828125 L 73.078125 -73.25 L 73.078125 -41.59375 L 34.234375 -39.875 L 34.234375 -24.984375 L 83.1875 -28.40625 L 83.1875 0 Z M 3.421875 0 "/></g></g></g><g fill="#ffffff" fill-opacity="1"><g transform="translate(707.641682, 124.184192)"><g/></g></g></g></g></svg>